<?xml version="1.0" encoding="utf-8"?>
<!-- Generator: Adobe Illustrator 29.8.5, SVG Export Plug-In . SVG Version: 9.03 Build 0)  -->
<svg version="1.0" id="Layer_1" xmlns="http://www.w3.org/2000/svg" xmlns:xlink="http://www.w3.org/1999/xlink" x="0px" y="0px"
	 viewBox="0 0 24.646643 24.015041" style="enable-background:new 0 0 24.646643 24.015041;" xml:space="preserve">
<style type="text/css">
	.st0{fill:#FFFFFF;}
</style>
<g>
	<path class="st0" d="M13.823321,3.304121v-0.7966c0-0.8284-0.671599-1.5-1.5-1.5c-0.8284,0-1.5,0.6716-1.5,1.5v0.7966
		c-1.4647,0.594-2.5,2.0255-2.5,3.7034c0,1.6778,1.0353,3.1094,2.5,3.7034v10.7966c0,0.8284,0.6716,1.5,1.5,1.5
		c0.828401,0,1.5-0.6716,1.5-1.5v-10.7966c1.464701-0.594,2.500001-2.025599,2.500001-3.7034
		C16.323322,5.329621,15.288022,3.898121,13.823321,3.304121z M12.323321,9.007521c-1.1046,0-2-0.8954-2-2s0.8954-2,2-2
		s2,0.8954,2,2S13.427921,9.007521,12.323321,9.007521z"/>
	<path class="st0" d="M6.323322,12.304121v-9.7966c0-0.8284-0.6716-1.5-1.5-1.5s-1.5,0.6716-1.5,1.5v9.7966
		c-1.4647,0.594-2.5,2.025499-2.5,3.7034c0,1.677799,1.0353,3.1094,2.5,3.7034v1.7966c0,0.8284,0.6716,1.5,1.5,1.5
		s1.5-0.6716,1.5-1.5v-1.7966c1.4647-0.594,2.5-2.0256,2.5-3.7034C8.823321,14.32962,7.788022,12.898121,6.323322,12.304121z
		 M4.823322,18.007521c-1.1046,0-2-0.895399-2-2s0.8954-2,2-2s2,0.8954,2,2S5.927922,18.007521,4.823322,18.007521z"/>
	<path class="st0" d="M21.323322,9.304121v-6.7966c0-0.8284-0.6716-1.5-1.5-1.5s-1.5,0.6716-1.5,1.5v6.7966
		c-1.464701,0.594-2.500001,2.025499-2.500001,3.7034c0,1.6778,1.0353,3.1094,2.500001,3.7034v4.7966c0,0.8284,0.6716,1.5,1.5,1.5
		s1.5-0.6716,1.5-1.5v-4.7966c1.464699-0.594,2.5-2.025599,2.5-3.7034C23.823322,11.32962,22.788021,9.898121,21.323322,9.304121z
		 M19.823322,15.007521c-1.104601,0-2-0.8954-2-2s0.895399-2,2-2c1.104599,0,2,0.8954,2,2S20.927921,15.007521,19.823322,15.007521z
		"/>
</g>
<g>
</g>
<g>
</g>
<g>
</g>
<g>
</g>
<g>
</g>
<g>
</g>
<g>
</g>
<g>
</g>
<g>
</g>
<g>
</g>
<g>
</g>
<g>
</g>
<g>
</g>
<g>
</g>
<g>
</g>
</svg>
