<?xml version="1.0" encoding="utf-8"?>
<!-- Generator: Adobe Illustrator 29.8.5, SVG Export Plug-In . SVG Version: 9.03 Build 0)  -->
<svg version="1.0" id="Layer_1" xmlns="http://www.w3.org/2000/svg" xmlns:xlink="http://www.w3.org/1999/xlink" x="0px" y="0px"
	 viewBox="0 0 852.570496 839.578064" style="enable-background:new 0 0 852.570496 839.578064;" xml:space="preserve">
<style type="text/css">
	.st0{fill:#303030;}
</style>
<path class="st0" d="M801.580383,385.436279l-343.514587-0.000305l-0.000305-343.514618
	c0.000305-18.1336-14.69989-32.833702-32.833496-32.8335c-18.133301-0.000199-32.833191,14.699901-32.833191,32.833199v343.515198
	l-343.514893-0.000305c-18.133299,0-32.833496,14.699982-32.833496,32.833496c0,18.133606,14.700199,32.833496,32.833496,32.833496
	l343.514893-0.000214v343.515106c0,18.133301,14.69989,32.833496,32.833496,32.833496
	c18.133301,0,32.833496-14.700195,32.833496-32.833496V451.102966h343.514587c18.133606,0,32.833496-14.69989,32.833496-32.833191
	C834.413879,400.135956,819.713989,385.435974,801.580383,385.436279z"/>
<g>
</g>
<g>
</g>
<g>
</g>
<g>
</g>
<g>
</g>
<g>
</g>
<g>
</g>
<g>
</g>
<g>
</g>
<g>
</g>
<g>
</g>
<g>
</g>
<g>
</g>
<g>
</g>
<g>
</g>
</svg>
